/* XPM */
static char *_5aabcc308754f16fa3654f01301f243[] = {
/* columns rows colors chars-per-pixel */
"64 64 220 2 ",
"   c #09295D",
".  c #092B64",
"X  c #0C2F6B",
"o  c #003476",
"O  c #0C3F71",
"+  c #00367B",
"@  c #0B377C",
"#  c #0C4474",
"$  c #0D427D",
"%  c #0C3A84",
"&  c #0E448B",
"*  c #0F538D",
"=  c #10439B",
"-  c #10499D",
";  c #0F5396",
":  c #10569E",
">  c #0E6592",
",  c #0F659E",
"<  c #1145A1",
"1  c #1249A3",
"2  c #1150A1",
"3  c #125DAC",
"4  c #134DB2",
"5  c #1352B5",
"6  c #1452BC",
"7  c #1459BC",
"8  c #0C6CA2",
"9  c #1066A6",
"0  c #1161AD",
"q  c #116CAF",
"w  c #0970AD",
"e  c #1169B0",
"r  c #1270B9",
"t  c #117EBB",
"y  c #1556C5",
"u  c #155EC6",
"i  c #095FD9",
"p  c #175CD5",
"a  c #175FD8",
"s  c #1469C5",
"d  c #1564CD",
"f  c #156ACD",
"g  c #1472C3",
"h  c #147FCD",
"j  c #0A63DB",
"k  c #0669DD",
"l  c #0B6BDD",
"z  c #1665D7",
"x  c #1764DA",
"c  c #166BDC",
"v  c #1E6DDC",
"b  c #0770DF",
"n  c #0B70DF",
"m  c #1675D7",
"M  c #1672DF",
"N  c #1E70DD",
"B  c #167EDB",
"V  c #2A75DE",
"C  c #1864E3",
"Z  c #176DE1",
"A  c #186AE5",
"S  c #186EE8",
"D  c #0B74E1",
"F  c #077EE5",
"G  c #0B7BE3",
"H  c #1775E0",
"J  c #1870E7",
"K  c #167CE2",
"L  c #1C7BE2",
"P  c #1874EA",
"I  c #1779E8",
"U  c #187AEC",
"Y  c #187FF1",
"T  c #237AE1",
"R  c #2A79E0",
"E  c #1282BD",
"W  c #0B8ACA",
"Q  c #1287C1",
"!  c #1289C4",
"~  c #1386CB",
"^  c #0C88D0",
"/  c #1587D5",
"(  c #1488D0",
")  c #1597DF",
"_  c #0684E7",
"`  c #0B83E6",
"'  c #0A87E8",
"]  c #078BE9",
"[  c #0B8CE9",
"{  c #1683E5",
"}  c #1D85E5",
"|  c #1689E7",
" . c #1785EB",
".. c #1881EF",
"X. c #168CE9",
"o. c #0E9AE7",
"O. c #0A93EC",
"+. c #0B99EE",
"@. c #1697E7",
"#. c #1499E0",
"$. c #1693EB",
"%. c #1C97EC",
"&. c #169CEE",
"*. c #1D9EEE",
"=. c #1884F1",
"-. c #188DF4",
";. c #1794F2",
":. c #1893F6",
">. c #169EF1",
",. c #1895F8",
"<. c #179CF8",
"1. c #189CFA",
"2. c #2182E4",
"3. c #2887E5",
"4. c #2A8EE7",
"5. c #278FE8",
"6. c #3E83E2",
"7. c #328CE6",
"8. c #3D8CE6",
"9. c #2795EA",
"0. c #2F94EA",
"q. c #229CED",
"w. c #3394E9",
"e. c #329CEC",
"r. c #3D9FEC",
"t. c #15A0E5",
"y. c #16A3EB",
"u. c #1CA0EF",
"i. c #0FA4F5",
"p. c #0FA7F8",
"a. c #16A3F1",
"s. c #16A8F4",
"d. c #17A4FC",
"f. c #18A1FB",
"g. c #17ACFB",
"h. c #18ACFF",
"j. c #17B3FF",
"k. c #18B3FF",
"l. c #2BA0EE",
"z. c #37A2EE",
"x. c #3FA8EF",
"c. c #21A2F0",
"v. c #2CA6F0",
"b. c #4F8EE4",
"n. c #4892E6",
"m. c #4497E8",
"M. c #5397E7",
"N. c #5598E8",
"B. c #5C9AE8",
"V. c #40A1ED",
"C. c #4CA5ED",
"Z. c #46A9EF",
"A. c #48AAEF",
"S. c #5FA0EA",
"D. c #53ACEF",
"F. c #59ABEE",
"G. c #49ABF0",
"H. c #4BB0F1",
"J. c #55B5F3",
"K. c #5FB0F0",
"L. c #66A7EC",
"P. c #6DA6EB",
"I. c #65AAED",
"U. c #6DABEC",
"Y. c #72A6EB",
"T. c #72ABEC",
"R. c #7BABEB",
"E. c #7EB2EE",
"W. c #6CBDF3",
"Q. c #70B7F0",
"!. c #72BEF3",
"~. c #7AB8F0",
"^. c #6CC1F5",
"/. c #72C0F4",
"(. c #7CC1F4",
"). c #7FC9F6",
"_. c #84B3EE",
"`. c #8AB5EE",
"'. c #86B9EF",
"]. c #8FBAEF",
"[. c #81BCF1",
"{. c #8BBDF1",
"}. c #84C1F2",
"|. c #8BC3F3",
" X c #84CAF6",
".X c #8ACEF7",
"XX c #9AC4F2",
"oX c #93CEF6",
"OX c #99CEF6",
"+X c #9CD2F6",
"@X c #A3C4F1",
"#X c #A3CBF4",
"$X c #A9CCF4",
"%X c #A3D3F7",
"&X c #AAD5F7",
"*X c #A7DAF9",
"=X c #A9D8F8",
"-X c #B5D5F6",
";X c #BBD5F5",
":X c #B2D8F7",
">X c #BAD8F6",
",X c #B3DEF9",
"<X c #BBDEF9",
"1X c #BDE2FA",
"2X c #C3DBF7",
"3X c #C0DCF8",
"4X c #C0E1F9",
"5X c #CDE2F9",
"6X c #D1E4F9",
"7X c #D8E5F9",
"8X c #D6EBFB",
"9X c #DCECFB",
"0X c #DEF1FC",
"qX c #E1F2FD",
"wX c #EBF4FD",
"eX c #EFF8FE",
"rX c #F1F7FD",
"tX c #F4FAFE",
"yX c #FFFFFF",
"uX c None",
/* pixels */
"uXuXuXuXuXuXuXuXuXuXuXuXuXuXuXuXuXuXuXuXuXuXuXuXuXuXuXuXuXuXuXuXuXuXuXuXuXuXuXuXuXuXuXuXuXuXuXuXuXuXuXuXuXuXuXuXuXuXuXuXuXuXuXuX",
"uXuXuXuXuXuXuXuXuXuXuXuXuXuXuXuXuXuXuXuXuXuXuXuXuXuXuXuXuXuXuXuXuXuXuXuXuXuXuXuXuXuXuXuXuXuXuXuXuXuXuXuXuXuXuXuXuXuXuXuXuXuXuXuX",
"uXuXuXuXuXuXuXuXuXuXuXuXuXuXuXuXuXuXuXuXuXuXuXuXuXuXuXuXuXuXuXuXuXuXuXuXuXuXuXuXuXuXuXuXuXuXuXuXuXuXuXuXuXuXuXuXuXuXuXuXuXuXuXuX",
"uXuXuXuXuXuXuXuXuXuXuXuXuXuXuXuXuXuXuXuXuXuXuXuXuXuXuXuXuXuXuXuXuXuXuXuXuXuXuXuXuXuXuXuXuXuXuXuXuXuXuXuXuXuXuXuXuXuXuXuXuXuXuXuX",
"uXuXuXuXuXuXuXuXuXuXuXuXuXuXuXuXuXuXuXuXuXuXuXuXuX8 W o.i.p.p.p.p.i.i.a.o.^ w uXuXuXuXuXuXuXuXuXuXuXuXuXuXuXuXuXuXuXuXuXuXuXuXuX",
"uXuXuXuXuXuXuXuXuXuXuXuXuXuXuXuXuXuXuXuXuXuX! s.j.j.g.s.s.a.a.a.a.>.a.a.a.a.d.d.>.( uXuXuXuXuXuXuXuXuXuXuXuXuXuXuXuXuXuXuXuXuXuX",
"uXuXuXuXuXuXuXuXuXuXuXuXuXuXuXuXuXuXuXuXt.j.g.s.s.s.y.y.a.a.a.a.>.a.a.&.&.>.>.&.&.>.d.&., uXuXuXuXuXuXuXuXuXuXuXuXuXuXuXuXuXuXuX",
"uXuXuXuXuXuXuXuXuXuXuXuXuXuXuXuXuXuXt.j.g.s.a.s.s.s.s.a.a.a.&.a.a.&.&.a.&.&.&.&.&.&.&.;.f.&.uXuXuXuXuXuXuXuXuXuXuXuXuXuXuXuXuXuX",
"uXuXuXuXuXuXuXuXuXuXuXuXuXuXuXuXQ j.s.s.s.s.s.a.a.a.a.s.a.a.&.a.&.a.&.&.&.&.$.&.&.$.&.$.$.&.1./ uXuXuXuXuXuXuXuXuXuXuXuXuXuXuXuX",
"uXuXuXuXuXuXuXuXuXuXuXuXuXuXuXy.j.s.s.s.s.a.a.a.a.a.a.&.&.&.a.a.&.&.&.&.&.&.&.$.$.&.&.$.$.$.$.;.;.uXuXuXuXuXuXuXuXuXuXuXuXuXuXuX",
"uXuXuXuXuXuXuXuXuXuXuXuXuXuXj.g.s.a.s.s.a.s.y.a.a.a.u.a.a.&.&.&.&.&.&.&.&.&.&.&.&.$.$.$.$.$.$.X.$.1.e uXuXuXuXuXuXuXuXuXuXuXuXuX",
"uXuXuXuXuXuXuXuXuXuXuXuX> j.s.s.s.s.a.a.a.a.a.a.a.&.a.a.&.&.&.&.&.$.&.&.$.&.$.$.$.$.%.$.$.$.$.$.X.$.1.r uXuXuXuXuXuXuXuXuXuXuXuX",
"uXuXuXuXuXuXuXuXuXuXuX> j.s.s.s.a.a.a.a.a.a.&.a.&.a.&.+.+.O.+.&.&.$.O.O.O.$.&.$.$.$.$.$.X.$.$.X.X.$.X.,.r uXuXuXuXuXuXuXuXuXuXuX",
"uXuXuXuXuXuXuXuXuXuXuXk.s.s.s.y.a.a.a.a.&.a.a.a.&.+.+.v.J. XW.+.+.H..XW.x.&.] [ $.$.$.$.$.X.$.X.X.X.X.| ,.e uXuXuXuXuXuXuXuXuXuX",
"uXuXuXuXuXuXuXuXuXuXk.s.s.s.s.a.a.a.a.&.a.&.&.+.c.^.1XeXyXyX,XO.O./.yXyXyX8XOXG.X.] $.X.X.$.X.X.X.X.X.| | ,.* uXuXuXuXuXuXuXuXuX",
"uXuXuXuXuXuXuXuXuXy.s.a.a.a.a.a.a.a.a.a.a.+.u.).qXyXyXyXyXyX*XO.] !.yXyXyXyXyXyX4XD.[ X.X.X.X.| X.| X.| } X.-.uXuXuXuXuXuXuXuXuX",
"uXuXuXuXuXuXuXuXE j.s.a.a.a.a.a.&.a.a.a.+.J.8XyXyXyXyXyXyXyX=XO.] W.yXyXyXyXyXyXyXyX&X9.[ X.X.X.X.| | | | |  .B uXuXuXuXuXuXuXuX",
"uXuXuXuXuXuXuXuXh.a.a.a.a.a.a.a.a.&.+.+. XyXyXyXyXyXyXyXyXyX=X] O.W.yXyXyXyXyXyXyXyXyX0XC._ | | | | | | } { { -.; uXuXuXuXuXuXuX",
"uXuXuXuXuXuXuX#.s.a.a.s.a.a.&.&.&.&.&.*XyXyXyXyXyXyXyXyXyXyX=X] [ !.yXyXyXyXyXyXyXyXyXyXrXF.` { { | { { { { { {  .uXuXuXuXuXuXuX",
"uXuXuXuXuXuXuXh.a.a.a.u.&.a.&.a.&.+.*XyXyXyXyXyXyXyXyXtX,X!.z.$.$.e.(.<XtXyXyXyXyXyXyXyXyXtXC.F } | { { { { { { =.0 uXuXuXuXuXuX",
"uXuXuXuXuXuX) s.a.&.a.&.&.a.>.&.+..XyXyXyXyXyXyXyXyX+Xz.[ ] X.$.X.X.] [ e.|.eXyXyXyXyXyXyXyXwXw.` { { { { K { K I | uXuXuXuXuXuX",
"uXuXuXuXuXuXh.a.a.a.&.a.&.&.&.+.J.yXyXyXyXyXyXyX8XG.] O.$.$.$.$.$.X.X.| ' ` 0.:XyXyXyXyXyXyXyX<XG { { { { { { K { =.; uXuXuXuXuX",
"uXuXuXuXuXt d.a.a.&.&.a.&.&.+.u.0XyXyXyXyXyXyX<Xq.] $.$.$.$.X.X.X.X.X.X.X.| ' ` }.yXyXyXyXyXyXyXU.G { { K K K { K I m uXuXuXuXuX",
"uXuXuXuXuXa.a.>.&.a.&.&.&.&.O. XyXyXyXyXyXyX<X$.X.$.$.X.$.X.$.X.X.X.X.X.X.X.| | F [.yXyXyXyXyXyX0X{ K K K { K K K K =.uXuXuXuXuX",
"uXuXuXuXuXd.u.&.&.&.&.&.&.&.*.wXyXyXyXyXyX8X%.[ $.$.X.$.$.X.X.X.X.X.X.| | | | | { ` +XyXyXyXyXyXyXI.G K { K K K K K ..; uXuXuXuX",
"uXuXuXuX8 d.a.&.&.&.&.&.$.O.!.yXyXyXyXyXyXZ.] $.$.X.X.X.X.X.X.X.X.X.| | | | | { { G } 9XyXyXyXyXyX3XG K K K K K K K K s uXuXuXuX",
"uXuXuXuX~ f.&.&.&.&.&.&.&.O.1XyXyXyXyXyX+X' $.$.$.X.X.X.X.X.| | | | | { | | { { { { F I.yXyXyXyXyXtX7.K H K H K M K H K uXuXuXuX",
"uXuXuXuX@.>.&.&.&.$.&.$.$.l.tXyXyXyXyXtXz.X.X.X.X.$.X.X.| X.| | | | { | { { { { { { K { 6XyXyXyXyXyXI.D K H K H K M M U uXuXuXuX",
"uXuXuXuX>.>.&.$.$.&.&.$.$.J.yXyXyXyXyX1X[ X.X.$.X.X.X.X.| | | | | | | { | { { { { { K D [.yXyXyXyXyXXXb K H H H M H H U uXuXuXuX",
"uXuXuXuXf.&.&.&.&.$.$.$.] (.yXyXyXyXyX(.' X.X.X.X.X.| | | | | { { { { { { K { { K { { G m.yXyXyXyXyX5Xn H H L H H H M U o uXuXuX",
"uXuXuXuXf.&.$.$.$.$.&.$.] oXyXyXyXyXyXD.[ X.X.X.X.| | | | | | | { { { { { { K { K K K K 2.XX$X$X$X$X{.K H H H H M M M U + uXuXuX",
"uXuXuXuXf.$.&.$.$.$.$.$.] %XyXyXyXyXyXV.[ | | | | | | | | { | { { { { { K { K K { K K K K D n n b b n M M H M H M M M U + uXuXuX",
"uXuXuXuXf.$.$.$.$.$.$.$.[ %XyXyXyXyXyXr.[ | | | | | | { { { { { { { { K { { K K K K K K K n b b n l n H H M H M M c M U + uXuXuX",
"uXuXuXuXf.$.$.$.$.$.X.$.] OXyXyXyXyXyXC.` | | | | | { { { { { { { K { { I K K K K K K K L L.U.P.T.U.L.M M M M M c M c P + uXuXuX",
"uXuXuXuX1.$.$.$.$.$.$.X.' (.yXyXyXyXyXQ.` { | | { | { { { { { { K K { K K K K K I K H D 8.yXyXyXyXyX5Xc M M M M M M c P o uXuXuX",
"uXuXuXuX;.$.$.$.$.X.X.$._ K.yXyXyXyXyX&X` | | { { { { { { K K { { K K K K K K K H H H n P.yXyXyXyXyX#Xk M M c c c c c P uXuXuXuX",
"uXuXuXuXX.$.$.$.X.X.$.X.X.e.yXyXyXyXyXeX4.{ { { { { { K { { K { K K K K K K K K K H H D 2XyXyXyXyXyXP.k c c c M c c c S uXuXuXuX",
"uXuXuXuXh %.X.X.X.X.| X.| | 5XyXyXyXyXyX~.F { { { { K } K { K K { K K L K H M K H H n n.yXyXyXyXyXyXn.l M c c c c c c v uXuXuXuX",
"uXuXuXuX9 ;.X.X.X.X.X.X.X.F {.yXyXyXyXyXwX4.K { { { { K K K K K K K M K K H K M H H l ;XyXyXyXyXyX6Xc c c c c c c c c u uXuXuXuX",
"uXuXuXuXuX1.X.X.X.X.| | X.' w.tXyXyXyXyXyX:XG { K K { K K K K K M K K K K M K M H k R.yXyXyXyXyXyXR.j c c c c c c x S - uXuXuXuX",
"uXuXuXuXuX$.X.X.|  .| | | | F %XyXyXyXyXyXyX|.D G I { K K K K K K K M K M M H H k M.yXyXyXyXyXyXwXR c c c c c c x c S uXuXuXuXuX",
"uXuXuXuXuXg -.X.| | | | { | ` 7.rXyXyXyXyXyXyX{.D K K K K K K M K M L M K M M k N.tXyXyXyXyXyXyX`.j c c c x x c x x z uXuXuXuXuX",
"uXuXuXuXuX# :.| | { { | { { { F ~.yXyXyXyXyXyXyX$X2.b K K K K K M K M M n l c E.tXyXyXyXyXyXyX9XN c c x v x x x x A 1 uXuXuXuXuX",
"uXuXuXuXuXuX} X.| | { { { { { { G >XyXyXyXyXyXyXyX9XL.K l n M K K M n l M M.2XyXyXyXyXyXyXyXyXb.j c c x c x c x x S uXuXuXuXuXuX",
"uXuXuXuXuXuX* -.| { { { { { { { K 2.6XyXyXyXyXyXyXyXyX6XE.8.L M M T n._.5XyXyXyXyXyXyXyXyXyXY.j z x c x c x x x C 5 uXuXuXuXuXuX",
"uXuXuXuXuXuXuX{ | { { { { { K { { G 3.6XyXyXyXyXyXyXyXyXyXyXXXl l L.yXyXyXyXyXyXyXyXyXyXyX_.j c x c x x x x a x A uXuXuXuXuXuXuX",
"uXuXuXuXuXuXuX# -.{ { { K K K K K K G 2.-XyXyXyXyXyXyXyXyXyX$Xl l P.yXyXyXyXyXyXyXyXyXyXR.i z x x c x x x x a A 1 uXuXuXuXuXuXuX",
"uXuXuXuXuXuXuXuXg  .K { K { { K K K K D H '.yXyXyXyXyXyXyXyX$Xl j P.yXyXyXyXyXyXyXyX7Xb.i z c x x x x x a a x a uXuXuXuXuXuXuXuX",
"uXuXuXuXuXuXuXuXuX} { K K { K K K K H K H n n.-XyXyXyXyXyXyX$Xj k P.yXyXyXyXyXyXwX_.v j c x x x x x x x a x C X uXuXuXuXuXuXuXuX",
"uXuXuXuXuXuXuXuXuX# -.K I K H K K K H K H M b M n.@XqXyXyXyX$Xk k Y.yXyXyXyX5XR.V j z c x x x x x a x a a C < uXuXuXuXuXuXuXuXuX",
"uXuXuXuXuXuXuXuXuXuX: =.K K K K K H H H H H K M l l R N.].;X].l j B.2X@XY.6.c j x z x x x x x a x a a a A 6 uXuXuXuXuXuXuXuXuXuX",
"uXuXuXuXuXuXuXuXuXuXuX3 =.K K H H K H H H H M M M M c l j c c c c v z j i j c x x z x x x x x x z a a C y uXuXuXuXuXuXuXuXuXuXuX",
"uXuXuXuXuXuXuXuXuXuXuXuX3 ..H H M H M H H M M H M M M M c c c c c c c x c x c x x x x x a x a a a a C y uXuXuXuXuXuXuXuXuXuXuXuX",
"uXuXuXuXuXuXuXuXuXuXuXuXuX: Y K L H M M M M M M c M c M M c c c c x x c x c x x x x x x a a a a a C 6 uXuXuXuXuXuXuXuXuXuXuXuXuX",
"uXuXuXuXuXuXuXuXuXuXuXuXuXuX$ U P M M M M c M c c c c c c c x c c x x c x x x x x x x a a a a a C = uXuXuXuXuXuXuXuXuXuXuXuXuXuX",
"uXuXuXuXuXuXuXuXuXuXuXuXuXuXuXuXf U H M M M M c M c c c c c x c x c x x x a a x a x a a a p C a X uXuXuXuXuXuXuXuXuXuXuXuXuXuXuX",
"uXuXuXuXuXuXuXuXuXuXuXuXuXuXuXuXuX& L P H c c c c c c c c x x c x x x x x x a a a a a a C C < uXuXuXuXuXuXuXuXuXuXuXuXuXuXuXuXuX",
"uXuXuXuXuXuXuXuXuXuXuXuXuXuXuXuXuXuXuX2 Z P Z c c c x c c c x x x x x a a x x a a a C C 4 uXuXuXuXuXuXuXuXuXuXuXuXuXuXuXuXuXuXuX",
"uXuXuXuXuXuXuXuXuXuXuXuXuXuXuXuXuXuXuXuXuX& d P J Z c x x x x x x x a a a a x A C p = uXuXuXuXuXuXuXuXuXuXuXuXuXuXuXuXuXuXuXuXuX",
"uXuXuXuXuXuXuXuXuXuXuXuXuXuXuXuXuXuXuXuXuXuXuXuX& 7 z A S S S A A A A A C a y =   uXuXuXuXuXuXuXuXuXuXuXuXuXuXuXuXuXuXuXuXuXuXuX",
"uXuXuXuXuXuXuXuXuXuXuXuXuXuXuXuXuXuXuXuXuXuXuXuXuXuXuXuX  @ % % % % @ . uXuXuXuXuXuXuXuXuXuXuXuXuXuXuXuXuXuXuXuXuXuXuXuXuXuXuXuX",
"uXuXuXuXuXuXuXuXuXuXuXuXuXuXuXuXuXuXuXuXuXuXuXuXuXuXuXuXuXuXuXuXuXuXuXuXuXuXuXuXuXuXuXuXuXuXuXuXuXuXuXuXuXuXuXuXuXuXuXuXuXuXuXuX",
"uXuXuXuXuXuXuXuXuXuXuXuXuXuXuXuXuXuXuXuXuXuXuXuXuXuXuXuXuXuXuXuXuXuXuXuXuXuXuXuXuXuXuXuXuXuXuXuXuXuXuXuXuXuXuXuXuXuXuXuXuXuXuXuX",
"uXuXuXuXuXuXuXuXuXuXuXuXuXuXuXuXuXuXuXuXuXuXuXuXuXuXuXuXuXuXuXuXuXuXuXuXuXuXuXuXuXuXuXuXuXuXuXuXuXuXuXuXuXuXuXuXuXuXuXuXuXuXuXuX"
};
