/* XPM */
static char *_01d23ab95924e54a0ad3bea60eda558[] = {
/* columns rows colors chars-per-pixel */
"32 32 154 2 ",
"   c #003A6A",
".  c #0B386A",
"X  c #0D3578",
"o  c #04407F",
"O  c #043781",
"+  c #0B3A83",
"@  c #0E4C8C",
"#  c #10439A",
"$  c #0F5A95",
"%  c #0F5B9C",
"&  c #0E6798",
"*  c #0E6E9D",
"=  c #124CAA",
"-  c #1152A2",
";  c #0A51B7",
":  c #0A5EB8",
">  c #1053B9",
",  c #0463AA",
"<  c #036CAA",
"1  c #106BA7",
"2  c #1160AA",
"3  c #0274AE",
"4  c #0270B1",
"5  c #0A5ED9",
"6  c #135CD3",
"7  c #077ACD",
"8  c #0D60D1",
"9  c #0C6AD4",
"0  c #0D63DA",
"q  c #066ADE",
"w  c #0C6CDE",
"e  c #1362D4",
"r  c #1764DA",
"t  c #1865DC",
"y  c #166BDD",
"u  c #1672DF",
"i  c #2D77DF",
"p  c #2D78DF",
"a  c #0E6DE0",
"s  c #1664E0",
"d  c #1863E2",
"f  c #176CE2",
"g  c #186AE3",
"h  c #1866E8",
"j  c #186DE8",
"k  c #0972E1",
"l  c #0B7BE3",
"z  c #1575E1",
"x  c #167CE3",
"c  c #1873EB",
"v  c #177DE9",
"b  c #1878EB",
"n  c #187FF0",
"m  c #2777E0",
"M  c #267FE2",
"N  c #287EE2",
"B  c #337FE1",
"V  c #0784CF",
"C  c #0587D3",
"Z  c #058CD2",
"A  c #0987DE",
"S  c #0C83E6",
"D  c #098CE2",
"F  c #0886E8",
"G  c #0C8DEA",
"H  c #1683E6",
"J  c #1688E7",
"K  c #1784EA",
"L  c #158CE9",
"P  c #0796E4",
"I  c #0B94ED",
"U  c #0C9AEF",
"Y  c #159EE7",
"T  c #1593EC",
"R  c #1F90E9",
"E  c #169BEE",
"W  c #1885F2",
"Q  c #188BF3",
"!  c #0F9EF0",
"~  c #1793F3",
"^  c #159EF0",
"/  c #1894F9",
"(  c #179EFA",
")  c #189AFB",
"_  c #2682E4",
"`  c #2D87E5",
"'  c #2C8DE7",
"]  c #208DE8",
"[  c #3385E4",
"{  c #3D84E3",
"}  c #358CE6",
"|  c #3B8BE5",
" . c #2593EA",
".. c #219EEE",
"X. c #2B9EEE",
"o. c #3897EA",
"O. c #3C9FED",
"+. c #16A1EB",
"@. c #16A3F1",
"#. c #16A8F4",
"$. c #17A3F9",
"%. c #18A5FE",
"&. c #17ACFC",
"*. c #17B2FF",
"=. c #18B3FF",
"-. c #2AA4EF",
";. c #3CA6EF",
":. c #20A2F0",
">. c #37ABF1",
",. c #3CA8F0",
"<. c #4C95E8",
"1. c #439DEB",
"2. c #579FEA",
"3. c #5B9BE9",
"4. c #629EE9",
"5. c #689EE9",
"6. c #43A7EE",
"7. c #48A6EE",
"8. c #43A8EF",
"9. c #44AAF0",
"0. c #53AEF0",
"q. c #4AB1F2",
"w. c #5CB4F2",
"e. c #6CA3EA",
"r. c #60A9ED",
"t. c #69A8EC",
"y. c #70A8EC",
"u. c #7CC8F6",
"i. c #96BFF1",
"p. c #87C2F3",
"a. c #8CC0F2",
"s. c #93C3F3",
"d. c #9DCFF6",
"f. c #9BD5F8",
"g. c #A7CCF4",
"h. c #ACCFF4",
"j. c #A3D1F6",
"k. c #AAD5F7",
"l. c #A3D5F8",
"z. c #B3D4F6",
"x. c #B3D8F7",
"c. c #B4DCF9",
"v. c #C4DAF7",
"b. c #CDDFF8",
"n. c #C3E3FA",
"m. c #CAE4FA",
"M. c #D2E3F9",
"N. c #DEEAFA",
"B. c #E5F3FD",
"V. c #ECF5FD",
"C. c #F1F7FE",
"Z. c #F5FBFE",
"A. c #FFFFFF",
"S. c None",
/* pixels */
"S.S.S.S.S.S.S.S.S.S.S.S.S.S.S.S.S.S.S.S.S.S.S.S.S.S.S.S.S.S.S.S.",
"S.S.S.S.S.S.S.S.S.S.S.S.S.S.S.S.S.S.S.S.S.S.S.S.S.S.S.S.S.S.S.S.",
"S.S.S.S.S.S.S.S.S.S.S.S.3 Z P P P P C 4 S.S.S.S.S.S.S.S.S.S.S.S.",
"S.S.S.S.S.S.S.S.S.* #.*.&.#.#.@.^ @.@.$.%.E 1 S.S.S.S.S.S.S.S.S.",
"S.S.S.S.S.S.S.S.+.*.#.#.@.@.@.@.^ ^ E E E T ( T S.S.S.S.S.S.S.S.",
"S.S.S.S.S.S.S.*.#.@.#.@.@.^ U ^ E I T T E T T T ) $ S.S.S.S.S.S.",
"S.S.S.S.S.S.=.#.#.@.@.! I :.q.-...q.X.I G T L T L ) $ S.S.S.S.S.",
"S.S.S.S.S.*.#.@.@.! U >.f.B.A.w.,.A.C.c.0.G L L L J / S.S.S.S.S.",
"S.S.S.S.+.#.@.@.^ U u.C.A.A.A.w.;.A.A.A.A.k. .S J J K K S.S.S.S.",
"S.S.S.& &.@.@.^ U f.A.A.A.A.n.;.X.m.A.A.A.A.m.] H J H Q 2 S.S.S.",
"S.S.S.+.@.@.^ U u.A.A.A.n.6.G T L G O.x.A.A.A.x.l H H H K S.S.S.",
"S.S.S.&.E E U ,.Z.A.A.l.L G T T L L F S p.A.A.A.r.l x x W o S.S.",
"S.S.< $.E E I f.A.A.n.I L T L L L J J J l j.A.A.m.x x x v : S.S.",
"S.S.V ( E T ..B.A.A.6.G L L J J L J H J l ' C.A.Z.} u x x 9 S.S.",
"S.S.D E E I 9.A.A.m.L L L L J J J H H H H l z.A.A.t.a x z w S.S.",
"S.S.D E T G w.A.A.d.F L L L J H H H H x x x } 2.2.[ u z z a S.S.",
"S.S.D T T F w.A.A.d.S J J J H H H H x x x x _ } | M u u u w S.S.",
"S.S.A T T G 7.A.A.n.S J H H H H x x x x x q g.A.A.e.w u y 0 S.S.",
"S.S.7 T L L  .C.A.Z.o.S H H H x x x x x u M V.A.A.{ w y y 8 S.S.",
"S.S., ~ L L S k.A.A.x.l x x x x x x z z q i.A.A.M.y y y f > S.S.",
"S.S.  / L J S 1.A.A.A.a.k l x x x z u q y.A.A.A.e.q y t j O S.S.",
"S.S.S.J L H H l a.A.A.A.h.` k u u y N i.A.A.A.v.y t t t g S.S.S.",
"S.S.S.% Q H H x x z.A.A.A.C.h.[ _ h.C.A.A.A.N.p 8 t t g = S.S.S.",
"S.S.S.S.H K x x l x s.A.A.A.A.3.{ A.A.A.A.v.i 5 t r t s S.S.S.S.",
"S.S.S.S.S.W H x x z a <.z.Z.A.3.{ A.A.b.5.r 6 r r r h X S.S.S.S.",
"S.S.S.S.S.@ W x x z z u w [ 4.[ m 5.B r 5 r r r r h # S.S.S.S.S.",
"S.S.S.S.S.S.@ n x u u u y y 0 t y 0 0 r t r r r h # S.S.S.S.S.S.",
"S.S.S.S.S.S.S.. u b u u y y y y r t r r r r d r X S.S.S.S.S.S.S.",
"S.S.S.S.S.S.S.S.S.- z c f f y t t r r s h d = S.S.S.S.S.S.S.S.S.",
"S.S.S.S.S.S.S.S.S.S.S.+ > e t s t r 6 > + S.S.S.S.S.S.S.S.S.S.S.",
"S.S.S.S.S.S.S.S.S.S.S.S.S.S.S.S.S.S.S.S.S.S.S.S.S.S.S.S.S.S.S.S.",
"S.S.S.S.S.S.S.S.S.S.S.S.S.S.S.S.S.S.S.S.S.S.S.S.S.S.S.S.S.S.S.S."
};
